<svg
  width="851"
  height="741"
  viewBox="0 0 851 741"
  fill="none"
  xmlns="http://www.w3.org/2000/svg"
>
<g clip-path="url(#clip0_1_2)">
<rect width="851" height="741" fill="#201F1F" />
<path d="M851 0H0V741H851V0Z" fill="#2C3E50" />
<path
      d="M756.878 438.54C756.989 530.209 721.556 618.352 658.028 684.44C654.198 688.45 650.265 692.363 646.228 696.18C640.078 702.03 633.721 707.653 627.158 713.05C565.76 763.634 489.112 792.059 409.578 793.74C406.928 793.8 404.268 793.83 401.598 793.83C338.168 793.83 258.388 759.95 185.988 713.05C179.998 709.17 174.061 705.2 168.178 701.14C165.428 699.26 162.691 697.353 159.968 695.42C132.044 675.702 105.539 654.049 80.648 630.62C64.3509 615.325 49.0684 598.983 34.898 581.7C-20.732 513.08 -33.002 451.25 46.308 438.54C55.698 437.04 64.8113 435.436 73.648 433.73C86.4481 431.27 98.6981 428.613 110.398 425.76C126.158 421.93 140.965 417.776 154.818 413.3C159.478 411.8 164.031 410.27 168.478 408.71C234.218 385.62 278.218 355.51 308.168 322.84C313.248 317.31 317.931 311.713 322.218 306.05C328.777 297.429 334.734 288.368 340.048 278.93C347.383 265.816 353.543 252.079 358.458 237.88L358.728 237.1C382.558 168.36 375.308 104.6 401.598 83.2595C513.978 -7.97052 653.888 121.95 719.558 275.16C722.868 282.88 725.981 290.646 728.898 298.46C730.208 301.95 731.471 305.446 732.688 308.95C735.888 318.08 738.791 327.233 741.398 336.41C742.398 339.91 743.351 343.406 744.258 346.9C745.228 350.67 746.158 354.43 747.018 358.19C753.408 385.72 756.878 412.87 756.878 438.54Z"
      fill="#050505"
    />
<path
      d="M445.578 741.74C442.928 741.8 440.268 741.83 437.598 741.83C374.168 741.83 294.388 707.95 221.988 661.05C215.998 657.17 210.061 653.2 204.178 649.14L209.338 617.74L365.548 597L443.948 656.95L445.578 741.74Z"
      fill="#2F2E41"
    />
<path
      d="M453.098 256.95H430.838C430.149 256.95 429.487 257.224 429 257.711C428.512 258.199 428.238 258.86 428.238 259.55V281.81C428.237 282.151 428.304 282.49 428.435 282.805C428.565 283.121 428.757 283.408 428.998 283.65C429.24 283.891 429.526 284.083 429.842 284.213C430.158 284.343 430.496 284.41 430.838 284.409H453.098C453.787 284.409 454.449 284.135 454.936 283.648C455.424 283.16 455.698 282.499 455.698 281.81V259.55C455.696 258.861 455.421 258.2 454.934 257.713C454.447 257.226 453.787 256.952 453.098 256.95Z"
      fill="#514848"
    />
<path
      d="M455.658 297.04C455.547 296.441 455.231 295.899 454.763 295.509C454.296 295.118 453.707 294.903 453.098 294.899H430.838C430.149 294.9 429.487 295.174 429 295.661C428.512 296.149 428.238 296.81 428.238 297.5V319.76C428.237 320.101 428.304 320.44 428.435 320.755C428.565 321.071 428.756 321.358 428.998 321.6C429.24 321.841 429.526 322.033 429.842 322.163C430.158 322.293 430.496 322.36 430.838 322.36H453.098C453.787 322.359 454.449 322.085 454.936 321.598C455.424 321.11 455.698 320.449 455.698 319.76V297.5C455.7 297.345 455.687 297.191 455.658 297.04Z"
      fill="#514848"
    />
<path
      d="M454.108 333.05C453.788 332.917 453.445 332.849 453.098 332.85H430.838C430.496 332.849 430.158 332.916 429.842 333.046C429.527 333.177 429.24 333.368 428.998 333.61C428.757 333.851 428.565 334.138 428.435 334.454C428.304 334.77 428.238 335.108 428.238 335.45V357.71C428.237 358.051 428.303 358.39 428.433 358.706C428.563 359.022 428.754 359.31 428.996 359.551C429.238 359.793 429.525 359.985 429.841 360.115C430.157 360.245 430.496 360.311 430.838 360.31H453.098C453.788 360.309 454.449 360.035 454.936 359.548C455.424 359.06 455.698 358.399 455.698 357.71V335.45C455.697 334.938 455.546 334.438 455.263 334.011C454.98 333.585 454.579 333.25 454.108 333.05Z"
      fill="#514848"
    />
<path
      d="M499.858 332.85H477.598C477.256 332.849 476.918 332.916 476.602 333.046C476.287 333.177 476 333.368 475.758 333.61C475.517 333.851 475.325 334.138 475.195 334.454C475.064 334.77 474.997 335.108 474.998 335.45V357.71C474.997 358.051 475.064 358.39 475.195 358.705C475.325 359.021 475.517 359.308 475.758 359.55C476 359.791 476.287 359.983 476.602 360.113C476.918 360.244 477.256 360.31 477.598 360.31H499.858C500.547 360.309 501.209 360.035 501.696 359.548C502.184 359.06 502.458 358.399 502.458 357.71V335.45C502.458 334.76 502.184 334.099 501.696 333.611C501.209 333.124 500.547 332.85 499.858 332.85Z"
      fill="#514848"
    />
<path
      d="M362.095 661.051H361.475L362.005 660.981L362.095 661.051Z"
      fill="#2F2E41"
    />
<path
      d="M485.548 346.11L485.328 347.27L482.858 360.31L465.788 450.51L464.778 455.82L462.658 467.05L459.758 482.37L453.328 516.32L451.488 526.05L450.798 529.7L450.558 530.98L448.648 541.05L448.068 544.09L443.408 578.62L439.338 608.71L452.958 622.329L444.838 630.449L439.508 660.98L439.518 661.05H221.988C213.188 655.35 204.515 649.473 195.968 643.419L197.758 630.02C197.758 630.02 203.918 606.09 201.328 603.23C198.748 600.37 193.088 595.26 193.088 595.26L200.218 578.62L201.208 576.31L199.548 541.88L199.508 541.05L198.958 529.699L198.888 528.239L198.778 526.05L196.668 482.369L196.628 481.649L195.988 468.409L195.388 455.82L195.128 450.509L192.558 397.379L190.818 361.3L189.298 329.89L195.408 327.82L260.758 305.609L287.828 270.419L344.168 270.839L371.748 271.05L417.768 313.729L428.238 318.729L428.318 318.769L435.828 322.359L454.868 331.449L474.998 341.07L485.328 346L485.548 346.11Z"
      fill="#524747"
    />
<path
      d="M295.109 558.551C290.98 560.15 286.551 560.825 282.134 560.528C277.716 560.23 273.417 558.968 269.54 556.829C265.663 554.691 262.303 551.728 259.694 548.15C257.086 544.572 255.294 540.466 254.445 536.121L147.886 521.003L184.929 479.101L280.44 499.881C287.834 498.938 295.318 500.74 301.473 504.946C307.628 509.151 312.026 515.469 313.834 522.701C315.642 529.932 314.734 537.576 311.283 544.184C307.832 550.791 302.077 555.903 295.109 558.551Z"
      fill="#FFB6B6"
    />
<path
      d="M247.598 482.37C245.624 479.867 242.83 478.142 239.708 477.5L195.988 468.409L191.498 467.48C188.889 466.935 186.424 465.846 184.264 464.283C182.105 462.72 180.3 460.718 178.968 458.409C177.586 455.986 176.75 453.29 176.518 450.51C176.31 447.982 176.612 445.438 177.408 443.03L192.558 397.38L202.388 367.76C203.579 364.187 204.282 360.47 204.478 356.71C205.026 346.302 201.806 336.046 195.408 327.82C189.783 320.589 181.982 315.359 173.156 312.903C164.331 310.446 154.949 310.894 146.398 314.18C146.148 314.27 145.888 314.37 145.638 314.47C139.505 316.918 134.026 320.76 129.633 325.691C125.241 330.621 122.055 336.506 120.328 342.88L109.648 381.73L87.6179 461.82C85.4126 469.844 84.9671 478.25 86.3119 486.462C87.6566 494.675 90.7599 502.5 95.4092 509.402C100.059 516.304 106.144 522.12 113.25 526.451C120.355 530.783 128.313 533.528 136.578 534.5L199.548 541.88L228.688 545.3C232.058 545.705 235.456 544.825 238.206 542.837C240.956 540.848 242.857 537.896 243.528 534.57C243.575 534.388 243.612 534.205 243.638 534.02L244.338 529.699L250.268 493.32L250.328 492.949C250.637 491.093 250.554 489.193 250.083 487.37C249.613 485.548 248.767 483.845 247.598 482.37Z"
      fill="#524747"
    />
<path
      d="M362.983 559.717C367.295 560.718 371.775 560.762 376.107 559.844C380.438 558.927 384.516 557.071 388.053 554.407C391.589 551.743 394.499 548.336 396.576 544.426C398.654 540.517 399.849 536.199 400.077 531.777L503.439 501.783L460.858 465.524L369.231 499.565C361.778 499.674 354.623 502.513 349.123 507.545C343.623 512.577 340.159 519.451 339.389 526.866C338.619 534.28 340.595 541.72 344.943 547.775C349.292 553.829 355.71 558.079 362.983 559.717Z"
      fill="#FFB6B6"
    />
<path
      d="M554.758 434.69L505.598 321.55C501.577 312.261 494.396 304.697 485.328 300.2C482.525 298.82 479.581 297.747 476.548 297C476.078 296.88 475.608 296.77 475.138 296.679C468.706 295.276 462.034 295.399 455.658 297.04C449.83 298.537 444.383 301.246 439.672 304.99C434.961 308.734 431.092 313.43 428.318 318.77C428.288 318.814 428.261 318.861 428.238 318.909C425.139 324.904 423.491 331.543 423.427 338.29C423.363 345.038 424.884 351.707 427.868 357.76L428.478 358.98L463.218 428.75C464.404 431.135 465.073 433.745 465.179 436.407C465.286 439.07 464.829 441.724 463.837 444.198C462.846 446.671 461.342 448.906 459.426 450.757C457.51 452.609 455.224 454.034 452.718 454.939L450.278 455.82L406.398 471.669C403.105 472.844 400.397 475.251 398.843 478.383C397.29 481.515 397.012 485.127 398.068 488.46L398.178 488.81L410.478 528.169C410.538 528.35 410.598 528.53 410.668 528.709C410.776 529.049 410.91 529.38 411.068 529.699C412.375 532.631 414.686 535 417.584 536.381C420.482 537.761 423.778 538.062 426.878 537.229L450.558 530.979L455.388 529.699L516.538 513.55C524.584 511.423 532.076 507.584 538.5 502.293C544.924 497.003 550.129 490.386 553.759 482.897C557.389 475.408 559.357 467.223 559.53 458.903C559.702 450.582 558.074 442.322 554.758 434.689V434.69Z"
      fill="#524747"
    />
<path
      d="M70.898 529.7C85.0684 546.983 100.351 563.325 116.648 578.62H568.618C572.972 578.626 577.147 580.36 580.225 583.44C583.303 586.52 585.034 590.695 585.038 595.05L585.688 709.58C613.493 696.805 639.531 680.493 663.158 661.05C669.718 655.66 676.075 650.036 682.228 644.18C686.258 640.36 690.191 636.446 694.028 632.44C722.792 602.475 746.084 567.702 762.848 529.7H70.898Z"
      fill="#3F3D56"
    />
<path
      d="M694.028 632.44C690.198 636.45 686.265 640.363 682.228 644.18H586.018V632.44H694.028Z"
      fill="#1F1C1C"
    />
<path
      d="M484.648 256.95C484.173 256.072 483.469 255.34 482.612 254.829C481.755 254.319 480.776 254.049 479.778 254.05H151.938C150.468 254.053 149.06 254.64 148.021 255.68C146.983 256.72 146.399 258.13 146.398 259.6V455.82H485.328V259.6C485.333 258.672 485.099 257.76 484.648 256.95Z"
      fill="#3F3D56"
    />
<path
      d="M146.101 450.507V474.721C146.101 475.725 146.299 476.719 146.683 477.646C147.067 478.574 147.63 479.416 148.34 480.126C149.05 480.836 149.892 481.399 150.82 481.783C151.747 482.167 152.741 482.365 153.745 482.365H278.842V530.151H277.18C277.049 530.151 276.92 530.177 276.8 530.227C276.679 530.277 276.57 530.35 276.478 530.442C276.385 530.534 276.312 530.644 276.262 530.764C276.213 530.885 276.187 531.014 276.187 531.144V534.468C276.187 534.599 276.212 534.728 276.262 534.848C276.312 534.969 276.385 535.078 276.478 535.17C276.57 535.263 276.679 535.336 276.8 535.386C276.92 535.435 277.049 535.461 277.18 535.461H354.838C354.969 535.461 355.098 535.435 355.218 535.386C355.339 535.336 355.448 535.263 355.54 535.17C355.633 535.078 355.706 534.969 355.756 534.848C355.806 534.728 355.831 534.599 355.831 534.468V531.144C355.831 531.014 355.806 530.885 355.756 530.764C355.706 530.644 355.633 530.534 355.54 530.442C355.448 530.35 355.339 530.277 355.218 530.227C355.098 530.177 354.969 530.151 354.838 530.151H353.176V482.365H478.273C479.277 482.365 480.271 482.167 481.198 481.783C482.126 481.399 482.968 480.836 483.678 480.126C484.388 479.416 484.951 478.574 485.335 477.646C485.719 476.719 485.917 475.725 485.917 474.721V450.507H146.101Z"
      fill="#3F3D56"
    />
<path
      d="M311.903 381.01C329.193 381.01 343.209 366.994 343.209 349.704C343.209 332.414 329.193 318.397 311.903 318.397C294.613 318.397 280.596 332.414 280.596 349.704C280.596 366.994 294.613 381.01 311.903 381.01Z"
      fill="#6C63FF"
    />
<path
      d="M427.098 180.05H404.838C404.149 180.05 403.487 180.324 403 180.811C402.512 181.299 402.238 181.96 402.238 182.649V204.919C402.238 205.26 402.306 205.598 402.437 205.913C402.568 206.227 402.759 206.513 403.001 206.754C403.242 206.994 403.529 207.185 403.844 207.315C404.159 207.444 404.497 207.511 404.838 207.51H427.098C427.786 207.51 428.446 207.237 428.933 206.752C429.421 206.266 429.696 205.607 429.698 204.919V182.649C429.696 181.961 429.421 181.3 428.934 180.813C428.447 180.326 427.787 180.052 427.098 180.05Z"
      fill="#1F1C1C"
    />
<path
      d="M567.378 218H545.118C544.429 218 543.767 218.274 543.28 218.761C542.792 219.249 542.518 219.91 542.518 220.6V242.87C542.518 243.21 542.586 243.548 542.717 243.863C542.848 244.177 543.039 244.463 543.281 244.704C543.522 244.944 543.809 245.135 544.124 245.265C544.439 245.394 544.777 245.461 545.118 245.46H567.378C568.066 245.46 568.726 245.187 569.213 244.702C569.701 244.216 569.976 243.557 569.978 242.87V220.6C569.976 219.911 569.701 219.25 569.214 218.763C568.727 218.276 568.067 218.002 567.378 218Z"
      fill="#1F1C1C"
    />
<path
      d="M567.378 255.95H545.118C544.429 255.95 543.767 256.224 543.28 256.711C542.792 257.199 542.518 257.86 542.518 258.55V280.81C542.517 281.151 542.584 281.49 542.715 281.805C542.845 282.121 543.036 282.408 543.278 282.65C543.52 282.891 543.806 283.083 544.122 283.213C544.438 283.343 544.776 283.41 545.118 283.409H567.378C568.067 283.409 568.729 283.135 569.216 282.648C569.704 282.16 569.978 281.499 569.978 280.81V258.55C569.976 257.861 569.701 257.2 569.214 256.713C568.727 256.226 568.067 255.952 567.378 255.95Z"
      fill="#1F1C1C"
    />
<path
      d="M614.138 255.95H591.868C591.18 255.952 590.521 256.227 590.036 256.714C589.55 257.202 589.278 257.862 589.278 258.55V280.81C589.277 281.15 589.343 281.488 589.473 281.803C589.603 282.119 589.793 282.405 590.034 282.647C590.274 282.888 590.56 283.08 590.875 283.211C591.19 283.342 591.527 283.409 591.868 283.409H614.138C614.827 283.409 615.489 283.135 615.976 282.648C616.464 282.16 616.738 281.499 616.738 280.81V258.55C616.736 257.861 616.461 257.2 615.974 256.713C615.487 256.226 614.827 255.952 614.138 255.95Z"
      fill="#1F1C1C"
    />
<path
      d="M614.138 218H591.868C591.18 218.002 590.521 218.277 590.036 218.764C589.55 219.252 589.278 219.912 589.278 220.6V242.87C589.278 243.556 589.551 244.215 590.037 244.701C590.522 245.187 591.181 245.459 591.868 245.46H614.138C614.826 245.46 615.486 245.187 615.973 244.702C616.461 244.216 616.736 243.557 616.738 242.87V220.6C616.736 219.911 616.461 219.25 615.974 218.763C615.487 218.276 614.827 218.002 614.138 218Z"
      fill="#1F1C1C"
    />
<path
      d="M614.138 180.05H591.868C591.18 180.052 590.521 180.327 590.036 180.814C589.55 181.302 589.278 181.962 589.278 182.649V204.919C589.278 205.606 589.551 206.265 590.037 206.751C590.522 207.236 591.181 207.509 591.868 207.51H614.138C614.826 207.51 615.486 207.237 615.973 206.752C616.461 206.266 616.736 205.607 616.738 204.919V182.649C616.736 181.961 616.461 181.3 615.974 180.813C615.487 180.326 614.827 180.052 614.138 180.05Z"
      fill="#1F1C1C"
    />
<path
      d="M660.898 180.05H638.628C637.94 180.052 637.281 180.327 636.796 180.814C636.31 181.302 636.038 181.962 636.038 182.649V204.919C636.038 205.606 636.311 206.265 636.797 206.751C637.282 207.236 637.941 207.509 638.628 207.51H660.898C661.586 207.51 662.246 207.237 662.733 206.752C663.221 206.266 663.496 205.607 663.498 204.919V182.649C663.496 181.961 663.221 181.3 662.734 180.813C662.247 180.326 661.587 180.052 660.898 180.05Z"
      fill="#1F1C1C"
    />
<path
      d="M660.898 331.85H638.628C638.287 331.85 637.95 331.917 637.635 332.048C637.32 332.179 637.034 332.371 636.794 332.612C636.553 332.854 636.363 333.141 636.233 333.456C636.103 333.771 636.037 334.109 636.038 334.45V356.71C636.037 357.05 636.103 357.388 636.233 357.703C636.363 358.019 636.553 358.305 636.794 358.547C637.034 358.788 637.32 358.98 637.635 359.111C637.95 359.242 638.287 359.309 638.628 359.31H660.898C661.587 359.309 662.249 359.035 662.736 358.548C663.224 358.06 663.498 357.399 663.498 356.71V334.45C663.498 333.76 663.224 333.099 662.736 332.611C662.249 332.124 661.587 331.85 660.898 331.85Z"
      fill="#1F1C1C"
    />
<path
      d="M660.898 218H638.628C637.94 218.002 637.281 218.277 636.796 218.764C636.31 219.252 636.038 219.912 636.038 220.6V242.87C636.038 243.556 636.311 244.215 636.797 244.701C637.282 245.187 637.941 245.459 638.628 245.46H660.898C661.586 245.46 662.246 245.187 662.733 244.702C663.221 244.216 663.496 243.557 663.498 242.87V220.6C663.496 219.911 663.221 219.25 662.734 218.763C662.247 218.276 661.587 218.002 660.898 218Z"
      fill="#1F1C1C"
    />
<path
      d="M707.658 293.899H685.388C684.7 293.902 684.041 294.177 683.556 294.664C683.07 295.152 682.798 295.812 682.798 296.5V318.76C682.797 319.1 682.863 319.438 682.993 319.753C683.123 320.069 683.313 320.355 683.554 320.597C683.794 320.838 684.08 321.03 684.395 321.161C684.71 321.292 685.047 321.359 685.388 321.36H707.658C708.347 321.359 709.009 321.085 709.496 320.598C709.984 320.11 710.258 319.449 710.258 318.76V296.5C710.256 295.811 709.981 295.15 709.494 294.663C709.007 294.176 708.347 293.902 707.658 293.899Z"
      fill="#1F1C1C"
    />
<path
      d="M520.618 255.95H498.358C497.669 255.95 497.007 256.224 496.52 256.711C496.032 257.199 495.758 257.86 495.758 258.55V280.81C495.757 281.151 495.824 281.49 495.955 281.805C496.085 282.121 496.277 282.408 496.518 282.65C496.76 282.891 497.047 283.083 497.362 283.213C497.678 283.343 498.016 283.41 498.358 283.409H520.618C521.307 283.409 521.969 283.135 522.456 282.648C522.944 282.16 523.218 281.499 523.218 280.81V258.55C523.216 257.861 522.941 257.2 522.454 256.713C521.967 256.226 521.307 255.952 520.618 255.95Z"
      fill="#514B4B"
    />
<path
      d="M473.858 180.05H451.598C450.909 180.05 450.247 180.324 449.76 180.811C449.272 181.299 448.998 181.96 448.998 182.649V204.919C448.998 205.26 449.066 205.598 449.197 205.913C449.328 206.227 449.519 206.513 449.761 206.754C450.002 206.994 450.289 207.185 450.604 207.315C450.919 207.444 451.257 207.511 451.598 207.51H473.858C474.546 207.51 475.206 207.237 475.693 206.752C476.181 206.266 476.456 205.607 476.458 204.919V182.649C476.456 181.961 476.181 181.3 475.694 180.813C475.207 180.326 474.547 180.052 473.858 180.05Z"
      fill="#514B4B"
    />
<path
      d="M427.098 218H404.838C404.149 218 403.487 218.274 403 218.761C402.512 219.249 402.238 219.91 402.238 220.6V242.87C402.238 243.21 402.306 243.548 402.437 243.863C402.568 244.177 402.759 244.463 403.001 244.704C403.242 244.944 403.529 245.135 403.844 245.265C404.159 245.394 404.497 245.461 404.838 245.46H427.098C427.786 245.46 428.446 245.187 428.933 244.702C429.421 244.216 429.696 243.557 429.698 242.87V220.6C429.696 219.911 429.421 219.25 428.934 218.763C428.447 218.276 427.787 218.002 427.098 218Z"
      fill="#514B4B"
    />
<path
      d="M567.378 293.899H545.118C544.429 293.9 543.767 294.174 543.28 294.661C542.792 295.149 542.518 295.81 542.518 296.5V318.76C542.517 319.101 542.584 319.44 542.715 319.755C542.845 320.071 543.036 320.358 543.278 320.6C543.52 320.841 543.806 321.033 544.122 321.163C544.438 321.293 544.776 321.36 545.118 321.36H567.378C568.067 321.359 568.729 321.085 569.216 320.598C569.704 320.11 569.978 319.449 569.978 318.76V296.5C569.976 295.811 569.701 295.15 569.214 294.663C568.727 294.176 568.067 293.902 567.378 293.899Z"
      fill="#514B4B"
    />
<path
      d="M660.898 293.899H638.628C637.94 293.902 637.281 294.177 636.796 294.664C636.31 295.152 636.038 295.812 636.038 296.5V318.76C636.037 319.1 636.103 319.438 636.233 319.753C636.363 320.069 636.553 320.355 636.794 320.597C637.034 320.838 637.32 321.03 637.635 321.161C637.95 321.292 638.287 321.359 638.628 321.36H660.898C661.587 321.359 662.249 321.085 662.736 320.598C663.224 320.11 663.498 319.449 663.498 318.76V296.5C663.496 295.811 663.221 295.15 662.734 294.663C662.247 294.176 661.587 293.902 660.898 293.899Z"
      fill="#514B4B"
    />
<path
      d="M707.658 255.95H685.388C684.7 255.952 684.041 256.227 683.556 256.714C683.07 257.202 682.798 257.862 682.798 258.55V280.81C682.797 281.15 682.863 281.488 682.993 281.803C683.123 282.119 683.313 282.405 683.554 282.647C683.794 282.888 684.08 283.08 684.395 283.211C684.71 283.342 685.047 283.409 685.388 283.409H707.658C708.347 283.409 709.009 283.135 709.496 282.648C709.984 282.16 710.258 281.499 710.258 280.81V258.55C710.256 257.861 709.981 257.2 709.494 256.713C709.007 256.226 708.347 255.952 707.658 255.95Z"
      fill="#514B4B"
    />
<path
      d="M754.418 255.95H732.148C731.46 255.952 730.801 256.227 730.316 256.714C729.83 257.202 729.558 257.862 729.558 258.55V280.81C729.557 281.15 729.623 281.488 729.753 281.803C729.883 282.119 730.073 282.405 730.314 282.647C730.554 282.888 730.84 283.08 731.155 283.211C731.47 283.342 731.807 283.409 732.148 283.409H754.418C755.107 283.409 755.769 283.135 756.256 282.648C756.744 282.16 757.018 281.499 757.018 280.81V258.55C757.016 257.861 756.741 257.2 756.254 256.713C755.767 256.226 755.107 255.952 754.418 255.95Z"
      fill="#514B4B"
    />
<path
      d="M801.178 180.05H778.908C778.22 180.052 777.561 180.327 777.076 180.814C776.59 181.302 776.318 181.962 776.318 182.649V204.919C776.318 205.606 776.591 206.265 777.077 206.751C777.562 207.236 778.221 207.509 778.908 207.51H801.178C801.866 207.51 802.526 207.237 803.013 206.752C803.501 206.266 803.776 205.607 803.778 204.919V182.649C803.776 181.961 803.501 181.3 803.014 180.813C802.527 180.326 801.867 180.052 801.178 180.05Z"
      fill="#514B4B"
    />
<path
      d="M801.178 331.85H778.908C778.567 331.85 778.23 331.917 777.915 332.048C777.6 332.179 777.314 332.371 777.074 332.612C776.833 332.854 776.643 333.141 776.513 333.456C776.383 333.771 776.317 334.109 776.318 334.45V356.71C776.317 357.05 776.383 357.388 776.513 357.703C776.643 358.019 776.833 358.305 777.074 358.547C777.314 358.788 777.6 358.98 777.915 359.111C778.23 359.242 778.567 359.309 778.908 359.31H801.178C801.867 359.309 802.529 359.035 803.016 358.548C803.504 358.06 803.778 357.399 803.778 356.71V334.45C803.778 333.76 803.504 333.099 803.016 332.611C802.529 332.124 801.867 331.85 801.178 331.85Z"
      fill="#514B4B"
    />
<path
      d="M847.938 331.85H825.668C825.327 331.85 824.99 331.917 824.675 332.048C824.36 332.179 824.074 332.371 823.834 332.612C823.593 332.854 823.403 333.141 823.273 333.456C823.143 333.771 823.077 334.109 823.078 334.45V356.71C823.077 357.05 823.143 357.388 823.273 357.703C823.403 358.019 823.593 358.305 823.834 358.547C824.074 358.788 824.36 358.98 824.675 359.111C824.99 359.242 825.327 359.309 825.668 359.31H847.938C848.627 359.309 849.289 359.035 849.776 358.548C850.264 358.06 850.538 357.399 850.538 356.71V334.45C850.538 333.76 850.264 333.099 849.776 332.611C849.289 332.124 848.627 331.85 847.938 331.85Z"
      fill="#514B4B"
    />
<path
      d="M847.938 218H825.668C824.98 218.002 824.321 218.277 823.836 218.764C823.35 219.252 823.078 219.912 823.078 220.6V242.87C823.078 243.556 823.351 244.215 823.837 244.701C824.322 245.187 824.981 245.459 825.668 245.46H847.938C848.626 245.46 849.286 245.187 849.773 244.702C850.261 244.216 850.536 243.557 850.538 242.87V220.6C850.536 219.911 850.261 219.25 849.774 218.763C849.287 218.276 848.627 218.002 847.938 218Z"
      fill="#514B4B"
    />
<path
      d="M847.938 180.05H825.668C824.98 180.052 824.321 180.327 823.836 180.814C823.35 181.302 823.078 181.962 823.078 182.649V204.919C823.078 205.606 823.351 206.265 823.837 206.751C824.322 207.236 824.981 207.509 825.668 207.51H847.938C848.626 207.51 849.286 207.237 849.773 206.752C850.261 206.266 850.536 205.607 850.538 204.919V182.649C850.536 181.961 850.261 181.3 849.774 180.813C849.287 180.326 848.627 180.052 847.938 180.05Z"
      fill="#514B4B"
    />
<path
      d="M847.938 293.899H825.668C824.98 293.902 824.321 294.177 823.836 294.664C823.35 295.152 823.078 295.812 823.078 296.5V318.76C823.077 319.1 823.143 319.438 823.273 319.753C823.403 320.069 823.593 320.355 823.834 320.597C824.074 320.838 824.36 321.03 824.675 321.161C824.99 321.292 825.327 321.359 825.668 321.36H847.938C848.627 321.359 849.289 321.085 849.776 320.598C850.264 320.11 850.538 319.449 850.538 318.76V296.5C850.536 295.811 850.261 295.15 849.774 294.663C849.287 294.176 848.627 293.902 847.938 293.899Z"
      fill="#514B4B"
    />
<path
      d="M614.138 331.85H591.868C591.527 331.85 591.19 331.917 590.875 332.048C590.56 332.179 590.274 332.371 590.034 332.612C589.793 332.854 589.603 333.141 589.473 333.456C589.343 333.771 589.277 334.109 589.278 334.45V356.71C589.277 357.05 589.343 357.388 589.473 357.703C589.603 358.019 589.793 358.305 590.034 358.547C590.274 358.788 590.56 358.98 590.875 359.111C591.19 359.242 591.527 359.309 591.868 359.31H614.138C614.827 359.309 615.489 359.035 615.976 358.548C616.464 358.06 616.738 357.399 616.738 356.71V334.45C616.738 333.76 616.464 333.099 615.976 332.611C615.489 332.124 614.827 331.85 614.138 331.85Z"
      fill="#514B4B"
    />
<path
      d="M479.86 218H457.6C456.91 218 456.249 218.274 455.762 218.761C455.274 219.249 455 219.91 455 220.6V242.87C455 243.21 455.068 243.548 455.199 243.863C455.33 244.177 455.521 244.463 455.763 244.704C456.004 244.944 456.291 245.135 456.606 245.265C456.921 245.394 457.259 245.461 457.6 245.46H479.86C480.548 245.46 481.208 245.187 481.695 244.702C482.183 244.216 482.458 243.557 482.46 242.87V220.6C482.458 219.911 482.183 219.25 481.696 218.763C481.209 218.276 480.549 218.002 479.86 218Z"
      fill="#3F3D56"
    />
<path
      d="M473.858 255.95H451.598C450.909 255.95 450.247 256.224 449.76 256.711C449.272 257.199 448.998 257.86 448.998 258.55V280.81C448.997 281.151 449.064 281.49 449.195 281.805C449.325 282.121 449.517 282.408 449.758 282.65C450 282.891 450.287 283.083 450.602 283.213C450.918 283.343 451.256 283.41 451.598 283.409H473.858C474.547 283.409 475.209 283.135 475.696 282.648C476.184 282.16 476.458 281.499 476.458 280.81V258.55C476.456 257.861 476.181 257.2 475.694 256.713C475.207 256.226 474.547 255.952 473.858 255.95Z"
      fill="#3F3D56"
    />
<path
      d="M473.858 293.899H451.598C451.053 293.9 450.522 294.072 450.08 294.392C449.639 294.711 449.309 295.162 449.138 295.679C449.046 295.943 448.998 296.22 448.998 296.5V318.76C448.997 319.101 449.064 319.44 449.195 319.755C449.325 320.071 449.516 320.358 449.758 320.6C450 320.841 450.286 321.033 450.602 321.163C450.918 321.293 451.256 321.36 451.598 321.36H473.858C474.547 321.359 475.209 321.085 475.696 320.598C476.184 320.11 476.458 319.449 476.458 318.76V296.5C476.456 295.811 476.181 295.15 475.694 294.663C475.207 294.176 474.547 293.902 473.858 293.899Z"
      fill="#3F3D56"
    />
<path
      d="M526.62 180.05H504.36C503.67 180.05 503.009 180.324 502.522 180.811C502.034 181.299 501.76 181.96 501.76 182.649V204.919C501.76 205.26 501.828 205.598 501.959 205.913C502.09 206.227 502.281 206.513 502.523 206.754C502.764 206.994 503.051 207.185 503.366 207.315C503.681 207.444 504.019 207.511 504.36 207.51H526.62C527.308 207.51 527.968 207.237 528.455 206.752C528.943 206.266 529.218 205.607 529.22 204.919V182.649C529.218 181.961 528.943 181.3 528.456 180.813C527.969 180.326 527.309 180.052 526.62 180.05Z"
      fill="#3F3D56"
    />
<path
      d="M526.62 293.899H504.36C503.67 293.9 503.009 294.174 502.522 294.661C502.034 295.149 501.76 295.81 501.76 296.5V318.76C501.759 319.101 501.826 319.44 501.956 319.755C502.087 320.071 502.278 320.358 502.52 320.6C502.762 320.841 503.048 321.033 503.364 321.163C503.68 321.293 504.018 321.36 504.36 321.36H526.62C527.309 321.359 527.971 321.085 528.458 320.598C528.946 320.11 529.22 319.449 529.22 318.76V296.5C529.218 295.811 528.943 295.15 528.456 294.663C527.969 294.176 527.309 293.902 526.62 293.899Z"
      fill="#3F3D56"
    />
<path
      d="M526.62 331.85H504.36C504.018 331.849 503.68 331.916 503.364 332.046C503.048 332.177 502.762 332.368 502.52 332.61C502.278 332.851 502.087 333.138 501.957 333.454C501.826 333.77 501.759 334.108 501.76 334.45V356.71C501.759 357.051 501.826 357.39 501.956 357.705C502.087 358.021 502.278 358.308 502.52 358.55C502.762 358.791 503.048 358.983 503.364 359.113C503.68 359.244 504.018 359.31 504.36 359.31H526.62C527.309 359.309 527.971 359.035 528.458 358.548C528.946 358.06 529.22 357.399 529.22 356.71V334.45C529.22 333.76 528.946 333.099 528.458 332.611C527.971 332.124 527.309 331.85 526.62 331.85Z"
      fill="#3F3D56"
    />
<path
      d="M573.38 180.05H551.12C550.43 180.05 549.769 180.324 549.282 180.811C548.794 181.299 548.52 181.96 548.52 182.649V204.919C548.52 205.26 548.588 205.598 548.719 205.913C548.85 206.227 549.041 206.513 549.283 206.754C549.524 206.994 549.811 207.185 550.126 207.315C550.441 207.444 550.779 207.511 551.12 207.51H573.38C574.068 207.51 574.728 207.237 575.215 206.752C575.703 206.266 575.978 205.607 575.98 204.919V182.649C575.978 181.961 575.703 181.3 575.216 180.813C574.729 180.326 574.069 180.052 573.38 180.05Z"
      fill="#3F3D56"
    />
<path
      d="M567.378 331.85H545.118C544.776 331.849 544.438 331.916 544.122 332.046C543.806 332.177 543.52 332.368 543.278 332.61C543.036 332.851 542.845 333.138 542.715 333.454C542.584 333.77 542.517 334.108 542.518 334.45V356.71C542.517 357.051 542.584 357.39 542.715 357.705C542.845 358.021 543.036 358.308 543.278 358.55C543.52 358.791 543.806 358.983 544.122 359.113C544.438 359.244 544.776 359.31 545.118 359.31H567.378C568.067 359.309 568.729 359.035 569.216 358.548C569.704 358.06 569.978 357.399 569.978 356.71V334.45C569.978 333.76 569.704 333.099 569.216 332.611C568.729 332.124 568.067 331.85 567.378 331.85Z"
      fill="#3F3D56"
    />
<path
      d="M620.14 293.899H597.87C597.182 293.902 596.523 294.177 596.038 294.664C595.552 295.152 595.28 295.812 595.28 296.5V318.76C595.279 319.1 595.345 319.438 595.475 319.753C595.604 320.069 595.795 320.355 596.036 320.597C596.276 320.838 596.562 321.03 596.877 321.161C597.192 321.292 597.529 321.359 597.87 321.36H620.14C620.829 321.359 621.49 321.085 621.978 320.598C622.466 320.11 622.74 319.449 622.74 318.76V296.5C622.738 295.811 622.463 295.15 621.976 294.663C621.489 294.176 620.829 293.902 620.14 293.899Z"
      fill="#3F3D56"
    />
<path
      d="M666.9 255.95H644.63C643.942 255.952 643.283 256.227 642.797 256.714C642.312 257.202 642.04 257.862 642.04 258.55V280.81C642.039 281.15 642.105 281.488 642.235 281.803C642.365 282.119 642.555 282.405 642.796 282.647C643.036 282.888 643.322 283.08 643.637 283.211C643.952 283.342 644.289 283.409 644.63 283.409H666.9C667.589 283.409 668.25 283.135 668.738 282.648C669.225 282.16 669.5 281.499 669.5 280.81V258.55C669.498 257.861 669.223 257.2 668.736 256.713C668.249 256.226 667.589 255.952 666.9 255.95Z"
      fill="#3F3D56"
    />
<path
      d="M713.66 180.05H691.39C690.702 180.052 690.043 180.327 689.558 180.814C689.072 181.302 688.8 181.962 688.8 182.649V204.919C688.8 205.606 689.073 206.265 689.559 206.751C690.044 207.236 690.703 207.509 691.39 207.51H713.66C714.348 207.51 715.008 207.237 715.495 206.752C715.982 206.266 716.257 205.607 716.26 204.919V182.649C716.258 181.961 715.983 181.3 715.496 180.813C715.009 180.326 714.349 180.052 713.66 180.05Z"
      fill="#3F3D56"
    />
<path
      d="M713.66 218H691.39C690.702 218.002 690.043 218.277 689.557 218.764C689.072 219.252 688.8 219.912 688.8 220.6V242.87C688.8 243.556 689.073 244.215 689.559 244.701C690.044 245.187 690.703 245.459 691.39 245.46H713.66C714.348 245.46 715.008 245.187 715.495 244.702C715.982 244.216 716.257 243.557 716.26 242.87V220.6C716.258 219.911 715.983 219.25 715.496 218.763C715.009 218.276 714.349 218.002 713.66 218Z"
      fill="#3F3D56"
    />
<path
      d="M707.658 331.85H685.388C685.047 331.85 684.71 331.917 684.395 332.048C684.08 332.179 683.794 332.371 683.554 332.612C683.313 332.854 683.123 333.141 682.993 333.456C682.863 333.771 682.797 334.109 682.798 334.45V356.71C682.797 357.05 682.863 357.388 682.993 357.703C683.123 358.019 683.313 358.305 683.554 358.547C683.794 358.788 684.08 358.98 684.395 359.111C684.71 359.242 685.047 359.309 685.388 359.31H707.658C708.347 359.309 709.009 359.035 709.496 358.548C709.984 358.06 710.258 357.399 710.258 356.71V334.45C710.258 333.76 709.984 333.099 709.496 332.611C709.009 332.124 708.347 331.85 707.658 331.85Z"
      fill="#3F3D56"
    />
<path
      d="M760.42 180.05H738.15C737.462 180.052 736.803 180.327 736.318 180.814C735.832 181.302 735.56 181.962 735.56 182.649V204.919C735.56 205.606 735.833 206.265 736.319 206.751C736.804 207.236 737.463 207.509 738.15 207.51H760.42C761.108 207.51 761.768 207.237 762.255 206.752C762.742 206.266 763.017 205.607 763.02 204.919V182.649C763.018 181.961 762.743 181.3 762.256 180.813C761.769 180.326 761.109 180.052 760.42 180.05Z"
      fill="#3F3D56"
    />
<path
      d="M754.418 218H732.148C731.46 218.002 730.801 218.277 730.316 218.764C729.83 219.252 729.558 219.912 729.558 220.6V242.87C729.558 243.556 729.831 244.215 730.317 244.701C730.802 245.187 731.461 245.459 732.148 245.46H754.418C755.106 245.46 755.766 245.187 756.253 244.702C756.741 244.216 757.016 243.557 757.018 242.87V220.6C757.016 219.911 756.741 219.25 756.254 218.763C755.767 218.276 755.107 218.002 754.418 218Z"
      fill="#3F3D56"
    />
<path
      d="M754.418 331.85H732.148C731.807 331.85 731.47 331.917 731.155 332.048C730.84 332.179 730.554 332.371 730.314 332.612C730.073 332.854 729.883 333.141 729.753 333.456C729.623 333.771 729.557 334.109 729.558 334.45V356.71C729.557 357.05 729.623 357.388 729.753 357.703C729.883 358.019 730.073 358.305 730.314 358.547C730.554 358.788 730.84 358.98 731.155 359.111C731.47 359.242 731.807 359.309 732.148 359.31H754.418C755.107 359.309 755.769 359.035 756.256 358.548C756.744 358.06 757.018 357.399 757.018 356.71V334.45C757.018 333.76 756.744 333.099 756.256 332.611C755.769 332.124 755.107 331.85 754.418 331.85Z"
      fill="#3F3D56"
    />
<path
      d="M801.178 218H778.908C778.22 218.002 777.561 218.277 777.076 218.764C776.59 219.252 776.318 219.912 776.318 220.6V242.87C776.318 243.556 776.591 244.215 777.077 244.701C777.562 245.187 778.221 245.459 778.908 245.46H801.178C801.866 245.46 802.526 245.187 803.013 244.702C803.501 244.216 803.776 243.557 803.778 242.87V220.6C803.776 219.911 803.501 219.25 803.014 218.763C802.527 218.276 801.867 218.002 801.178 218Z"
      fill="#3F3D56"
    />
<path
      d="M801.178 255.95H778.908C778.22 255.952 777.561 256.227 777.076 256.714C776.59 257.202 776.318 257.862 776.318 258.55V280.81C776.317 281.15 776.383 281.488 776.513 281.803C776.643 282.119 776.833 282.405 777.074 282.647C777.314 282.888 777.6 283.08 777.915 283.211C778.23 283.342 778.567 283.409 778.908 283.409H801.178C801.867 283.409 802.529 283.135 803.016 282.648C803.504 282.16 803.778 281.499 803.778 280.81V258.55C803.776 257.861 803.501 257.2 803.014 256.713C802.527 256.226 801.867 255.952 801.178 255.95Z"
      fill="#3F3D56"
    />
<path
      d="M807.18 293.899H784.91C784.222 293.902 783.563 294.177 783.078 294.664C782.592 295.152 782.32 295.812 782.32 296.5V318.76C782.319 319.1 782.385 319.438 782.515 319.753C782.645 320.069 782.835 320.355 783.076 320.597C783.316 320.838 783.602 321.03 783.917 321.161C784.231 321.292 784.569 321.359 784.91 321.36H807.18C807.869 321.359 808.53 321.085 809.018 320.598C809.505 320.11 809.779 319.449 809.78 318.76V296.5C809.778 295.811 809.503 295.15 809.016 294.663C808.529 294.176 807.869 293.902 807.18 293.899Z"
      fill="#3F3D56"
    />
<path
      d="M847.938 255.95H825.668C824.98 255.952 824.321 256.227 823.836 256.714C823.35 257.202 823.078 257.862 823.078 258.55V280.81C823.077 281.15 823.143 281.488 823.273 281.803C823.403 282.119 823.593 282.405 823.834 282.647C824.074 282.888 824.36 283.08 824.675 283.211C824.99 283.342 825.327 283.409 825.668 283.409H847.938C848.627 283.409 849.289 283.135 849.776 282.648C850.264 282.16 850.538 281.499 850.538 280.81V258.55C850.536 257.861 850.261 257.2 849.774 256.713C849.287 256.226 848.627 255.952 847.938 255.95Z"
      fill="#3F3D56"
    />
<path
      d="M526.62 218H504.36C503.67 218 503.009 218.274 502.522 218.761C502.034 219.249 501.76 219.91 501.76 220.6V242.87C501.76 243.21 501.828 243.548 501.959 243.863C502.09 244.177 502.281 244.463 502.523 244.704C502.764 244.944 503.051 245.135 503.366 245.265C503.681 245.394 504.019 245.461 504.36 245.46H526.62C527.308 245.46 527.968 245.187 528.455 244.702C528.943 244.216 529.218 243.557 529.22 242.87V220.6C529.218 219.911 528.943 219.25 528.456 218.763C527.969 218.276 527.309 218.002 526.62 218Z"
      fill="#3F3D56"
    />
<path
      d="M754.418 293.899H732.148C731.46 293.902 730.801 294.177 730.316 294.664C729.83 295.152 729.558 295.812 729.558 296.5V318.76C729.557 319.1 729.623 319.438 729.753 319.753C729.883 320.069 730.073 320.355 730.314 320.597C730.554 320.838 730.84 321.03 731.155 321.161C731.47 321.292 731.807 321.359 732.148 321.36H754.418C755.107 321.359 755.769 321.085 756.256 320.598C756.744 320.11 757.018 319.449 757.018 318.76V296.5C757.016 295.811 756.741 295.15 756.254 294.663C755.767 294.176 755.107 293.902 754.418 293.899Z"
      fill="#3F3D56"
    />
<path
      d="M282.814 245.055C320.548 245.055 351.136 214.466 351.136 176.733C351.136 139 320.548 108.411 282.814 108.411C245.081 108.411 214.493 139 214.493 176.733C214.493 214.466 245.081 245.055 282.814 245.055Z"
      fill="#FFB6B6"
    />
<path
      d="M342.646 126.64C342.646 126.64 360.515 92.4794 321.202 89.3739C321.202 89.3739 287.687 58.9716 253.526 83.8159C253.526 83.8159 234.893 83.8159 224.704 104.902C224.704 104.902 210.049 99.3435 206.828 114.218C206.828 114.218 196.105 145.274 206.828 173.223C217.552 201.173 221.114 204.279 221.114 204.279C221.114 204.279 203.493 145.68 246.384 142.575C289.274 139.469 337.27 112.665 340.845 146.826C344.419 180.987 349.798 189.404 349.798 189.404C349.798 189.404 383.748 140.615 342.646 126.64Z"
      fill="#2F2E41"
    />
<path
      d="M365.668 173H360.668C360.668 135.2 323.258 110.43 285.518 110.41C280.029 110.394 274.551 110.926 269.168 112C263.108 113.21 256.818 114.66 250.638 116.55C226.268 124.02 203.668 138.46 203.668 173C203.663 179.707 204.516 186.388 206.208 192.88L201.368 194.14C199.573 187.236 198.665 180.132 198.668 173C198.668 142.82 211.058 122.09 232.458 109.73C243.708 103.23 257.438 99.0396 273.168 96.9996C279.714 96.1287 286.331 95.9277 292.918 96.3996C336.318 99.5195 365.668 132.8 365.668 173Z"
      fill="#6C63FF"
    />
<path
      d="M285.518 110.41C280.029 110.394 274.551 110.926 269.168 112C263.108 113.21 256.818 114.66 250.638 116.55C240.988 116.08 233.888 113.58 232.458 109.73C243.708 103.23 257.438 99.0395 273.168 96.9995C279.714 96.1287 286.331 95.9277 292.918 96.3996C293.615 96.8083 294.218 97.36 294.687 98.0184C295.156 98.6768 295.48 99.4269 295.638 100.22C296.108 103.7 292.138 107.4 285.518 110.41Z"
      fill="#3F3D56"
    />
<path
      d="M221.678 207.7L213.978 175.69C213.703 174.535 213.094 173.487 212.226 172.677C211.357 171.868 210.269 171.333 209.098 171.14C208.767 171.088 208.433 171.061 208.098 171.06C207.626 171.061 207.156 171.118 206.698 171.23L203.718 171.95C199.881 172.878 196.569 175.29 194.509 178.657C192.448 182.024 191.808 186.071 192.728 189.91L196.178 204.27C196.966 207.65 198.842 210.679 201.518 212.89C201.952 213.24 202.406 213.564 202.878 213.86C204.554 214.91 206.424 215.614 208.377 215.93C210.33 216.246 212.326 216.168 214.248 215.7L217.218 214.98C218.003 214.796 218.742 214.453 219.388 213.97C220.348 213.269 221.079 212.299 221.487 211.183C221.895 210.066 221.961 208.854 221.678 207.7Z"
      fill="#6C63FF"
    />
<path
      d="M194.468 183.57C194.256 182.679 193.857 181.844 193.298 181.12C192.216 183.923 192.017 186.99 192.728 189.91L196.178 204.27C196.966 207.65 198.842 210.679 201.518 212.89L194.468 183.57Z"
      fill="#3F3D56"
    />
<path
      d="M205.536 201.744C206.878 201.421 207.233 198.112 206.329 194.353C205.424 190.594 203.603 187.809 202.26 188.132C200.918 188.455 200.563 191.764 201.467 195.523C202.372 199.282 204.193 202.067 205.536 201.744Z"
      fill="#3F3D56"
    />
<path
      d="M195.536 204.744C196.878 204.421 197.233 201.112 196.329 197.353C195.424 193.594 193.603 190.809 192.26 191.132C190.918 191.455 190.563 194.764 191.467 198.523C192.372 202.282 194.193 205.067 195.536 204.744Z"
      fill="#3F3D56"
    />
<path
      d="M222.168 207.58L214.468 175.57C214.168 174.32 213.506 173.187 212.565 172.312C211.624 171.436 210.446 170.858 209.178 170.65L219.688 214.37C220.726 213.609 221.515 212.559 221.957 211.35C222.398 210.142 222.472 208.83 222.168 207.58Z"
      fill="#1F1C1C"
    />
<path
      d="M373.998 175.77L372.028 161.21C371.542 157.533 369.771 154.146 367.028 151.65C365.267 150.022 363.159 148.816 360.864 148.123C358.568 147.43 356.145 147.268 353.778 147.65L350.648 148.08C349.792 148.192 348.966 148.474 348.219 148.908C347.473 149.343 346.819 149.921 346.298 150.61C345.772 151.296 345.387 152.08 345.166 152.916C344.944 153.751 344.891 154.623 345.008 155.48L349.558 189.02C349.745 190.387 350.358 191.66 351.309 192.66C352.26 193.659 353.502 194.334 354.858 194.59C355.26 194.67 355.668 194.71 356.078 194.71C356.372 194.709 356.666 194.689 356.958 194.65L360.458 194.18C362.592 193.896 364.645 193.18 366.492 192.074C368.339 190.968 369.941 189.497 371.198 187.75C371.468 187.37 371.728 186.98 371.968 186.579C373.842 183.307 374.558 179.499 373.998 175.77Z"
      fill="#6C63FF"
    />
<path
      d="M348.628 148.69C347.71 149.136 346.911 149.794 346.298 150.61C345.772 151.296 345.387 152.08 345.166 152.916C344.944 153.751 344.891 154.623 345.008 155.48L349.558 189.02C349.745 190.387 350.358 191.66 351.309 192.66C352.26 193.659 353.502 194.334 354.858 194.59L348.628 148.69Z"
      fill="#1F1C1C"
    />
<path
      d="M355.428 168.26C356.796 168.075 357.484 164.819 356.965 160.988C356.445 157.157 354.915 154.202 353.546 154.387C352.178 154.573 351.49 157.829 352.01 161.66C352.53 165.491 354.06 168.446 355.428 168.26Z"
      fill="#3F3D56"
    />
<path
      d="M373.998 175.77L372.028 161.21C371.542 157.533 369.771 154.146 367.028 151.65L371.558 185.02C371.626 185.555 371.764 186.08 371.968 186.58C373.842 183.307 374.558 179.499 373.998 175.77Z"
      fill="#3F3D56"
    />
<path
      d="M374.428 175.26C375.796 175.075 376.484 171.819 375.965 167.988C375.445 164.157 373.915 161.202 372.546 161.387C371.178 161.573 370.49 164.829 371.01 168.66C371.53 172.491 373.06 175.446 374.428 175.26Z"
      fill="#3F3D56"
    />
<path
      d="M358.428 186.26C359.796 186.075 360.484 182.819 359.965 178.988C359.445 175.157 357.915 172.202 356.546 172.387C355.178 172.573 354.49 175.829 355.01 179.66C355.53 183.491 357.06 186.446 358.428 186.26Z"
      fill="#3F3D56"
    />
</g>
<defs>
<clipPath id="clip0_1_2">
<rect width="851" height="741" fill="white" />
</clipPath>
</defs>
</svg>
